<svg width="240" height="96" viewBox="0 0 240 96" fill="none" xmlns="http://www.w3.org/2000/svg">
  <rect x="16" y="24" width="48" height="48" rx="12" fill="#553B1E"/>
  <path d="M30 58V38H41C46 38 49 40 49 44C49 46 48 48 45 49C48 50 50 52 50 55C50 60 46 62 40 62H30V58ZM36 48H40C42 48 43 47 43 45C43 43 42 42 40 42H36V48ZM36 58H40C43 58 44 57 44 55C44 53 43 52 40 52H36V58Z" fill="#F5F5F5"/>
  <text x="78" y="52" fill="#2B1702" font-family="Arial, sans-serif" font-size="28" font-weight="700">BLUM</text>
  <text x="78" y="70" fill="#A67C52" font-family="Arial, sans-serif" font-size="11" letter-spacing="1.8">HARDWARE</text>
</svg>
